<?xml version="1.0" ?><svg height="48px" version="1.1" viewBox="0 0 48 48" width="48px" xmlns="http://www.w3.org/2000/svg" xmlns:xlink="http://www.w3.org/1999/xlink"><title/><desc/><g fill="none" fill-rule="evenodd" id="Page-1" stroke="none" stroke-width="1"><g id="Artboard-Copy" transform="translate(-407.000000, -609.000000)"><path d="M417,620 C415.895,620 414.998,620.896 414.998,622.002 L414.998,640 C414.998,641.105 415.895,642 417,642 L445,642 C446.105,642 447,641.105 447,640 L447,622.002 C447,620.896 446.105,620 445,620 L417,620 Z M413.998,643 L447.998,643 C448.550285,643 448.998,643.447715 448.998,644 L448.998,646 C448.998,646.552285 448.550285,647 447.998,647 L413.998,647 C413.445715,647 412.998,646.552285 412.998,646 L412.998,644 C412.998,643.447715 413.445715,643 413.998,643 Z M429,644 L434,644 C434.552285,644 435,644.447715 435,645 C435,645.552285 434.552285,646 434,646 L429,646 C428.447715,646 428,645.552285 428,645 C428,644.447715 428.447715,644 429,644 Z M443.071429,623 C443.583071,623 444,623.449 444,624 L444,638 C444,638.553 443.583071,639 443.071429,639 L418.928571,639 C418.415071,639 418,638.553 418,638 L418,624 C418,623.449 418.415071,623 418.928571,623 L443.071429,623 Z M441.214286,625 C441.647214,625 442,625.33675 442,625.75 L442,636.25 C442,636.66475 441.647214,637 441.214286,637 L420.785714,637 C420.351214,637 420,636.66475 420,636.25 L420,625.75 C420,625.33675 420.351214,625 420.785714,625 L441.214286,625 Z" fill="#000000" id="laptop"/><g id="slices" transform="translate(47.000000, 9.000000)"/></g></g></svg>